<svg version="1.1" id="Layer_1" xmlns="http://www.w3.org/2000/svg" xmlns:xlink="http://www.w3.org/1999/xlink" x="0px" y="0px"
	 width="100%" viewBox="0 0 842 429" enable-background="new 0 0 842 429" xml:space="preserve">
<path fill="#000000" opacity="1.000000" stroke="none" 
	d="
M650.000000,430.000000 
	C433.333344,430.000000 217.166672,430.000000 1.000000,430.000000 
	C1.000000,287.000000 1.000000,144.000000 1.000000,1.000000 
	C281.666656,1.000000 562.333313,1.000000 843.000000,1.000000 
	C843.000000,144.000000 843.000000,287.000000 843.000000,430.000000 
	C778.833313,430.000000 714.666687,430.000000 650.000000,430.000000 
M423.399200,117.985970 
	C429.302063,105.861298 435.211365,93.739754 441.104187,81.610191 
	C443.037170,77.631363 444.927368,73.631737 446.870331,68.947594 
	C439.507111,51.666443 427.534973,41.405876 407.647461,42.982742 
	C394.714691,44.008171 384.675690,49.784569 378.440002,61.211884 
	C373.604492,70.073318 371.563110,79.764168 371.073242,89.977951 
	C369.746552,90.015312 368.407837,89.950859 367.095032,90.105705 
	C353.450287,91.715073 339.809723,93.359734 325.864960,94.376160 
	C322.274292,90.118263 318.696442,85.849510 315.090820,81.604340 
	C299.054230,62.723236 283.017120,43.842575 266.960785,24.978258 
	C264.266479,21.812777 259.213257,20.818388 255.952713,23.041351 
	C252.051804,25.700895 252.392288,29.255339 254.429123,32.970325 
	C254.689392,33.445045 254.754684,34.026669 255.133820,35.322918 
	C253.701630,34.697922 252.970901,34.480579 252.348679,34.090286 
	C249.348679,32.208511 246.570282,32.743118 244.421112,35.277130 
	C241.960220,38.178623 243.457825,41.063477 245.229950,43.697186 
	C246.329529,45.331333 247.628647,46.831203 248.420502,47.852570 
	C245.554596,48.344788 242.341583,48.040657 240.639816,49.499458 
	C239.562775,50.422733 239.909531,54.537437 241.064392,56.238762 
	C244.175049,60.821342 248.103531,64.842865 251.631531,69.149223 
	C260.132629,79.525894 268.529999,89.988472 277.119324,100.291199 
	C278.738068,102.232841 281.052063,103.594818 283.023865,106.015434 
	C284.885071,115.968147 287.607697,125.611526 293.033722,134.919342 
	C284.863861,146.974915 276.694000,159.030487 268.524109,171.086044 
	C268.853699,171.486084 269.183258,171.886124 269.512817,172.286163 
	C284.307404,166.467972 299.101959,160.649780 314.562653,155.122849 
	C328.173187,163.143295 342.694031,167.142532 358.674744,167.156067 
	C380.631775,167.174667 398.141815,158.710602 410.905518,141.255035 
	C415.923462,134.392563 418.919800,126.051834 422.863647,118.448853 
	C422.863647,118.448853 422.823608,118.504005 423.399200,117.985970 
M555.704651,174.009567 
	C546.845825,174.580780 539.883728,179.248413 532.999084,185.360825 
	C532.999084,168.457535 533.017822,152.469498 532.989685,136.481522 
	C532.978821,130.292496 530.166687,125.840073 524.700623,124.399269 
	C517.572693,122.520424 510.206818,122.348122 503.371429,125.238579 
	C500.811554,126.321060 498.484253,129.266129 497.297668,131.919510 
	C496.077271,134.648544 496.065552,138.057159 496.059906,141.169373 
	C495.984253,182.819244 495.854187,224.470398 496.159790,266.118134 
	C496.204773,272.249725 496.465851,279.964111 504.635437,281.567627 
	C510.472229,282.713287 516.707092,282.508453 522.694275,282.029694 
	C529.344910,281.497955 532.885986,279.333557 532.972107,269.119019 
	C533.085876,255.625366 532.904480,242.129105 533.035095,228.635757 
	C533.130005,218.826126 542.084534,210.818268 552.422119,211.002823 
	C561.642212,211.167419 567.988831,218.275803 567.997559,228.477859 
	C568.008484,241.306076 567.932129,254.134766 568.023804,266.962341 
	C568.095520,276.992859 572.144043,282.204041 581.004761,282.850037 
	C585.891968,283.206299 590.920105,282.668457 595.791077,281.922546 
	C600.828125,281.151154 604.867798,277.053802 604.856384,272.145355 
	C604.813904,253.873367 605.462524,235.498184 603.764709,217.357071 
	C601.588379,194.103729 582.799683,174.444077 555.704651,174.009567 
M254.337448,221.224686 
	C258.859070,213.667465 268.398926,209.293991 275.806885,211.382172 
	C283.745026,213.619781 287.995331,220.139938 287.998840,230.104019 
	C288.003418,243.098236 287.963470,256.092621 288.017670,269.086609 
	C288.043640,275.308868 291.062469,280.883698 295.721130,281.666473 
	C301.379456,282.617157 307.303223,283.292053 312.955353,282.667297 
	C321.260834,281.749268 324.827911,277.798035 324.866760,269.513031 
	C324.943848,253.072769 324.818420,236.603165 323.898865,220.194885 
	C323.044098,204.941147 315.931610,192.551422 303.719818,183.239868 
	C291.016693,173.553665 271.506531,170.370163 258.640137,180.177185 
	C256.909546,181.496262 255.292084,182.963806 252.999252,184.884476 
	C252.999252,168.688278 253.144104,153.534164 252.935226,138.384933 
	C252.837677,131.309738 250.513123,125.193123 243.854462,124.539291 
	C237.725403,123.937469 231.404312,123.691017 225.335327,124.517746 
	C218.986404,125.382607 216.061981,129.476685 216.049606,136.053696 
	C215.965546,180.700317 215.964676,225.347260 216.045822,269.993866 
	C216.058334,276.877625 219.243073,280.692963 226.080658,282.027679 
	C230.090805,282.810455 234.292191,283.100952 238.376450,282.918182 
	C247.689087,282.501434 252.858276,279.161072 252.967392,268.224945 
	C253.102005,254.732285 252.960190,241.237015 253.045395,227.743576 
	C253.057571,225.815613 253.673904,223.891479 254.337448,221.224686 
M475.493378,246.997177 
	C468.131683,240.936371 460.770020,234.875549 453.245972,228.681076 
	C460.838898,222.284760 468.580261,216.370712 475.583618,209.683731 
	C481.908417,203.644653 483.086487,199.246918 478.179626,191.744125 
	C476.559814,189.267410 474.880493,186.800903 472.970825,184.548035 
	C467.852631,178.510086 461.218079,174.757111 452.538147,180.961563 
	C446.390442,185.355942 440.733734,190.470276 435.087372,195.519913 
	C431.927460,198.345886 429.235229,201.694809 426.332245,204.808090 
	C425.680664,204.554672 425.029083,204.301239 424.377502,204.047821 
	C424.377502,179.830307 424.377502,155.612808 424.377502,130.949142 
	C422.867065,131.506439 422.432617,131.529419 422.316833,131.733337 
	C421.832092,132.586975 421.316864,133.457092 421.037567,134.388535 
	C416.419495,149.791245 406.190521,161.053070 393.857849,170.581650 
	C388.925171,174.392761 386.252380,178.368195 386.829315,185.023560 
	C387.545868,193.289734 386.999298,201.665344 386.999542,209.993698 
	C387.000122,229.315475 386.568115,248.650635 387.164948,267.953979 
	C387.523499,279.551636 389.176117,282.081268 399.397522,283.739014 
	C404.486420,284.564331 409.902130,283.306244 415.174103,283.090302 
	C420.235535,282.882965 422.442993,279.354126 423.676880,275.307953 
	C424.620819,272.212494 424.804077,268.830322 424.948822,265.559052 
	C425.150238,261.007629 424.999481,256.440613 424.999481,251.880295 
	C425.481689,251.644226 425.963867,251.408142 426.446075,251.172073 
	C429.920776,254.921539 433.272369,258.795563 436.904266,262.386017 
	C440.668854,266.107666 444.587585,269.695557 448.654510,273.083069 
	C452.945770,276.657440 457.333893,280.162628 461.973236,283.258026 
	C466.163177,286.053497 472.573395,285.980560 475.403198,282.890228 
	C479.496185,278.420441 483.390686,273.651550 486.608765,268.531891 
	C489.650360,263.692963 488.599457,259.047272 484.517365,255.059158 
	C481.805786,252.409988 478.848389,250.012466 475.493378,246.997177 
M648.069092,278.592072 
	C661.339478,284.742462 674.975952,286.931274 689.380432,283.001617 
	C719.720703,274.724579 735.762085,247.271011 730.209290,216.166138 
	C728.040955,204.020203 721.830872,194.590759 712.964783,186.393326 
	C698.538025,173.054642 681.510132,169.451553 662.728455,172.724091 
	C650.410583,174.870377 640.767273,181.830338 631.902710,190.446060 
	C617.242126,204.695007 614.689514,230.692047 620.946411,247.792664 
	C625.894226,261.315399 635.407043,270.841400 648.069092,278.592072 
M180.115753,281.923309 
	C184.621231,279.570282 189.591049,277.811401 193.529694,274.733124 
	C200.444397,269.328857 202.599518,261.551117 203.306122,252.875244 
	C204.239655,241.412842 202.714096,230.818054 193.529770,223.318680 
	C185.625259,216.864349 175.593033,214.706085 165.629822,212.958878 
	C161.449600,212.225784 157.215424,211.381516 153.283493,209.866882 
	C151.805878,209.297684 150.619080,206.772720 150.302795,204.963974 
	C150.171082,204.210724 152.511627,202.572220 153.979462,202.067413 
	C162.083664,199.280334 169.609085,201.991364 176.989426,205.021973 
	C186.168518,208.791214 190.101028,207.578506 194.964050,199.024231 
	C196.024094,197.159576 197.037109,195.240814 197.810806,193.245743 
	C200.448990,186.442841 198.855591,182.291351 192.186493,179.081909 
	C176.587677,171.575150 160.163727,170.255203 143.362442,173.365616 
	C135.547134,174.812469 128.099762,177.692123 122.978264,184.227951 
	C115.493355,193.779846 114.664696,204.616470 117.496124,216.065079 
	C119.153023,222.764526 121.560722,229.570602 127.246811,233.266296 
	C134.162537,237.761200 142.071045,240.898361 149.846130,243.840576 
	C154.859894,245.737839 160.447968,246.070435 165.681992,247.466583 
	C166.948471,247.804428 168.721954,249.631500 168.655304,250.670670 
	C168.581329,251.823929 166.716064,253.729462 165.546249,253.794785 
	C160.540405,254.074417 155.243835,254.756546 150.541534,253.485489 
	C144.254623,251.786118 138.478638,248.267807 132.370026,245.812302 
	C128.321060,244.184738 123.906319,243.958786 120.992279,247.724457 
	C118.092575,251.471619 115.604797,255.676270 113.688484,260.012665 
	C110.926392,266.262939 113.087868,271.551941 119.036316,274.968658 
	C138.118057,285.928955 158.311661,287.355530 180.115753,281.923309 
M268.155518,351.977570 
	C263.563690,352.904114 258.971863,353.830658 253.099045,355.015686 
	C254.152313,357.901001 254.357681,362.237671 256.429657,363.492737 
	C265.896240,369.226990 276.121216,373.708496 285.593475,379.434479 
	C290.633820,382.481323 295.460480,381.894684 301.132446,381.829163 
	C301.132446,366.059143 301.132446,350.664368 301.132446,335.345520 
	C306.036896,335.345520 310.405884,335.345520 315.009857,335.345520 
	C310.306335,345.824707 309.316193,356.233978 310.847382,367.256470 
	C312.287140,377.621094 322.261993,385.038635 330.719696,382.463379 
	C330.719696,379.413422 330.719696,376.330322 330.719696,372.778381 
	C324.561920,374.384491 321.767853,370.676514 321.230469,365.972534 
	C320.515045,359.710724 320.434692,353.219025 321.268005,346.984711 
	C322.003845,341.480133 324.461151,335.663330 331.083435,335.218201 
	C340.300659,334.598633 349.590637,335.062286 358.849487,335.062286 
	C359.185394,335.626801 359.521301,336.191315 359.857239,336.755859 
	C358.545319,338.016998 357.426941,339.629486 355.887451,340.477448 
	C349.777771,343.842743 343.365448,346.684357 337.395813,350.270294 
	C332.210999,353.384766 332.495575,362.603668 337.425018,366.175232 
	C342.972076,370.194244 348.702972,374.017487 353.870575,378.484924 
	C358.391998,382.393829 363.248230,382.418579 369.040894,381.653992 
	C369.040894,366.143524 369.040894,350.739777 369.040894,335.181458 
	C370.351257,335.101227 371.156525,335.022858 371.963013,335.007050 
	C380.158600,334.846252 380.998627,335.681549 380.999969,343.965454 
	C381.001007,350.297974 381.000183,356.630463 381.000183,362.962982 
	C381.000183,369.230591 381.000183,375.498169 381.000183,381.601562 
	C384.740356,381.601562 387.791138,381.601562 391.180237,381.601562 
	C391.180237,365.930206 391.180237,350.653931 391.180237,335.218689 
	C393.925842,335.047607 396.333710,334.897552 398.634399,334.754181 
	C398.634399,331.964325 398.634399,329.569244 398.634399,326.856140 
	C395.989136,326.856140 393.709625,326.856140 391.166168,326.856140 
	C391.042603,324.472565 390.935211,322.400757 390.828003,320.332520 
	C387.351105,320.332520 384.287384,320.332520 381.129181,320.332520 
	C381.028412,322.609131 380.942108,324.558258 380.845459,326.741913 
	C354.194702,326.741913 327.795135,326.741913 301.233826,326.741913 
	C301.057648,324.430969 300.899902,322.361877 300.747894,320.367859 
	C296.984863,320.367859 293.599060,320.367859 289.826691,320.367859 
	C289.826691,337.269714 289.826691,353.806976 289.826691,370.972351 
	C283.220276,367.383087 277.190186,364.106964 270.801483,360.635986 
	C286.678436,353.849579 287.220001,341.270020 282.187225,327.126434 
	C278.905243,327.126434 275.605377,327.126434 273.736053,327.126434 
	C272.574554,330.733673 271.922882,333.988861 270.408661,336.775330 
	C269.896271,337.718231 265.986084,338.162079 265.703552,337.661957 
	C263.981415,334.613251 262.857178,331.226807 261.133636,326.964050 
	C257.283875,326.964050 251.848862,326.964050 246.185471,326.964050 
	C246.045914,324.459381 245.930573,322.389496 245.815765,320.329041 
	C242.338745,320.329041 239.269760,320.329041 235.880707,320.329041 
	C235.880707,323.226318 235.880707,325.799011 235.880707,328.504547 
	C227.983521,324.608246 220.820297,324.586395 214.432266,330.783447 
	C207.194366,324.061829 198.096085,328.528870 190.168533,326.545441 
	C190.529175,317.687531 193.371429,314.603394 201.843582,315.128113 
	C208.855515,315.562408 215.797653,317.123291 222.852020,318.197388 
	C222.852020,315.795746 222.852020,313.160492 222.852020,310.302002 
	C213.402130,307.444031 204.111038,305.158203 194.070480,306.878845 
	C186.332336,308.204926 179.813034,313.187134 179.995834,322.130188 
	C180.028091,323.707916 180.000412,325.286896 180.000412,326.834473 
	C176.939392,326.976135 174.657074,327.081787 172.313614,327.190247 
	C172.313614,329.927856 172.313614,332.319916 172.313614,334.816406 
	C175.017456,334.968933 177.416458,335.104248 180.134491,335.257568 
	C180.134491,351.015045 180.134491,366.287537 180.134491,381.699402 
	C183.551254,381.699402 186.603867,381.699402 190.179016,381.699402 
	C190.179016,366.009644 190.179016,350.613922 190.179016,335.034088 
	C194.359070,335.034088 198.014709,334.938995 201.660553,335.086304 
	C202.915527,335.136963 204.151337,335.776093 205.386826,336.174500 
	C209.216934,337.409546 210.167664,340.650848 209.815201,343.941284 
	C209.452972,347.322784 207.663742,350.123627 203.491379,350.005402 
	C201.738266,349.955750 199.982574,349.997101 198.288422,349.997101 
	C197.552887,360.227509 198.860916,361.336670 208.179520,359.019226 
	C209.403641,358.714813 210.752548,358.427460 211.727478,357.705292 
	C213.836975,356.142761 215.329895,356.625519 217.744843,357.618073 
	C221.355530,359.102051 225.581924,359.087952 229.546387,359.711121 
	C229.980621,356.743134 230.418854,353.775726 230.833847,350.805054 
	C230.849716,350.691437 230.641373,350.546539 230.318466,350.141296 
	C229.764297,350.105560 228.969223,350.033905 228.172607,350.006287 
	C223.743912,349.852692 220.188965,346.903687 220.012039,343.224579 
	C219.825958,339.355438 222.719345,335.637329 226.390671,335.027802 
	C230.408844,334.360626 234.553314,337.028351 234.913651,341.852783 
	C235.689392,352.238831 235.704041,362.682556 235.988052,373.103851 
	C236.067566,376.021454 236.000183,378.943085 236.000183,381.732910 
	C239.714996,381.732910 242.657944,381.732910 246.080414,381.732910 
	C246.080414,366.058228 246.080414,350.642548 246.080414,335.154785 
	C248.209244,335.154785 249.842255,335.154785 251.450333,335.154785 
	C253.525101,348.089722 265.442963,349.212250 273.682281,344.567505 
	C274.042480,344.896759 274.402679,345.226013 274.762909,345.555267 
	C272.795166,347.573822 270.827423,349.592407 268.155518,351.977570 
M437.000122,357.500031 
	C437.000122,365.597260 437.000122,373.694519 437.000122,381.772217 
	C440.640381,381.772217 443.581421,381.772217 447.045868,381.772217 
	C447.045868,366.157990 447.045868,350.760986 447.045868,335.188232 
	C457.147278,335.188232 466.717133,335.188232 476.833923,335.188232 
	C472.817505,341.802124 470.292206,348.528687 473.962555,355.583008 
	C477.998383,363.339783 485.277496,363.663483 494.500580,361.863678 
	C491.779480,365.768738 490.497192,369.096710 488.073456,370.808746 
	C480.748505,375.982849 470.666809,372.075958 468.129333,362.559143 
	C467.007812,358.352905 467.017029,353.845215 466.491364,349.287445 
	C463.136383,349.287445 459.744995,349.287445 456.392365,349.287445 
	C454.315002,366.349274 463.845367,383.434296 483.324860,382.311249 
	C499.887238,381.356354 507.339142,362.242676 500.561829,351.741394 
	C498.037872,352.291290 495.671387,353.220612 493.306305,353.216980 
	C490.382660,353.212463 486.382996,353.408325 484.845215,351.709717 
	C483.357330,350.066223 483.932037,346.031891 484.502625,343.231476 
	C484.885651,341.351685 486.840088,339.792084 487.421387,339.001007 
	C494.668243,344.032532 501.594116,348.841187 508.006104,353.293060 
	C508.006104,361.661407 507.884369,370.260284 508.158905,378.846436 
	C508.193542,379.930267 510.177063,381.581055 511.490997,381.856689 
	C513.841309,382.349762 516.369263,381.995605 519.655701,381.995605 
	C514.572144,369.723297 518.104614,358.320984 520.651794,346.739960 
	C513.067200,344.037170 505.256653,342.302246 499.331726,335.368988 
	C529.485657,335.368988 558.624084,335.368988 587.919739,335.368988 
	C582.138367,347.435669 581.385986,359.570282 585.110474,371.873779 
	C587.239624,378.907379 594.185547,383.985809 602.762878,382.498810 
	C602.762878,379.427124 602.762878,376.327606 602.762878,373.251282 
	C596.875732,372.702362 594.488037,370.792206 594.092529,365.100861 
	C593.676331,359.111450 593.478699,353.002106 594.188232,347.065002 
	C595.125610,339.221863 598.483459,335.442993 604.683105,335.135742 
	C613.632690,334.692261 622.620605,335.022369 631.423523,335.022369 
	C632.825195,338.289307 631.655823,339.460693 628.881775,340.718475 
	C622.558411,343.585602 616.341309,346.779907 610.400574,350.370026 
	C605.308838,353.446960 605.409790,363.164764 610.238708,366.632721 
	C615.802673,370.628571 621.643433,374.274292 626.951111,378.580902 
	C631.499573,382.271515 636.313049,382.522369 642.100037,381.601868 
	C642.100037,366.067200 642.100037,350.659332 642.100037,335.304535 
	C653.223572,334.409454 653.999939,335.114471 654.000000,345.602631 
	C654.000000,355.268921 654.000000,364.935242 654.000000,374.601532 
	C654.000000,377.022186 654.000000,379.442871 654.000000,381.733521 
	C657.713989,381.733521 660.657288,381.733521 664.106079,381.733521 
	C664.106079,366.071869 664.106079,350.666931 664.106079,335.191071 
	C667.031250,335.029785 669.440857,334.896912 671.759888,334.769043 
	C671.759888,331.988007 671.759888,329.710724 671.759888,327.240112 
	C669.132751,327.065155 666.719238,326.904419 664.241577,326.739410 
	C664.039001,324.365173 663.862305,322.294312 663.699646,320.387939 
	C660.243958,320.387939 657.188843,320.387939 654.167480,320.387939 
	C654.032349,322.721985 653.919800,324.666504 653.799438,326.744934 
	C584.722473,326.744934 515.965576,326.744934 447.220184,326.744934 
	C446.867523,318.757050 450.215210,314.662750 457.717987,315.133301 
	C465.098328,315.596222 472.410461,317.146515 479.853394,318.234406 
	C479.853394,315.953369 479.853394,313.314270 479.853394,309.806427 
	C472.984802,308.551880 466.037506,306.475891 459.016663,306.187012 
	C448.086884,305.737335 440.184509,308.761230 437.861145,316.688232 
	C436.921875,319.892914 436.943420,323.379181 436.467468,327.224091 
	C433.970001,327.224091 431.570984,327.224091 429.240784,327.224091 
	C429.240784,330.017792 429.240784,332.295563 429.240784,334.798492 
	C431.865662,334.945068 434.269806,335.079346 437.000122,335.231812 
	C437.000122,342.557343 437.000122,349.528748 437.000122,357.500031 
M340.106903,186.108505 
	C340.072723,213.595139 339.957550,241.082062 340.049500,268.568268 
	C340.080536,277.841095 344.381226,282.259521 353.495270,282.939545 
	C356.808685,283.186768 360.168671,283.171844 363.485107,282.947235 
	C372.006104,282.370148 376.886505,277.966248 376.931091,270.101776 
	C377.089752,242.115036 377.037567,214.126740 376.955750,186.139343 
	C376.939728,180.660172 373.745300,176.418732 368.462585,175.368622 
	C363.809418,174.443619 358.944092,173.882950 354.225555,174.139160 
	C345.070282,174.636185 342.423035,177.081482 340.106903,186.108505 
M543.045837,366.561066 
	C536.714050,359.905487 536.546997,351.782227 537.536804,343.313904 
	C534.121338,343.313904 530.719116,343.313904 526.556946,343.313904 
	C527.072205,349.381866 527.033142,355.189636 528.156067,360.763245 
	C530.123596,370.528717 538.729492,378.291412 547.376404,378.994904 
	C561.946045,380.180267 569.271545,376.561218 574.070190,365.682129 
	C579.176941,354.104828 575.029602,336.595551 556.348511,338.950775 
	C548.838135,339.897644 544.635376,346.015289 546.124695,356.234619 
	C547.187866,363.530212 553.029297,358.926544 556.814880,359.591980 
	C555.884216,354.936920 554.244507,350.097992 559.886536,347.087799 
	C563.645691,348.111786 564.808105,350.683472 565.084961,354.392792 
	C565.529968,360.356171 563.905273,365.525452 558.793213,368.442566 
	C553.812927,371.284515 548.379639,370.768555 543.045837,366.561066 
M443.212708,52.326733 
	C442.852905,53.359283 441.888794,54.698734 442.231873,55.374313 
	C444.375824,59.595844 446.811676,63.669109 449.494080,68.396347 
	C455.756775,59.455944 461.693298,50.981152 467.629822,42.506355 
	C467.423157,42.207752 467.216492,41.909145 467.009827,41.610538 
	C459.294769,45.086433 451.579712,48.562325 443.212708,52.326733 
M406.026459,371.008820 
	C405.219940,371.637512 404.025604,372.098145 403.668732,372.921661 
	C400.997986,379.084686 398.492706,385.319397 395.434387,392.749359 
	C399.976135,391.894501 405.029541,392.430878 406.518524,390.379791 
	C410.721619,384.589844 413.461884,377.738007 416.934448,371.002411 
	C413.210571,371.002411 410.058350,371.002411 406.026459,371.008820 
z"/>
<path fill="#2D4797" opacity="1.000000" stroke="none" 
	d="
M556.148193,174.006287 
	C582.799683,174.444077 601.588379,194.103729 603.764709,217.357071 
	C605.462524,235.498184 604.813904,253.873367 604.856384,272.145355 
	C604.867798,277.053802 600.828125,281.151154 595.791077,281.922546 
	C590.920105,282.668457 585.891968,283.206299 581.004761,282.850037 
	C572.144043,282.204041 568.095520,276.992859 568.023804,266.962341 
	C567.932129,254.134766 568.008484,241.306076 567.997559,228.477859 
	C567.988831,218.275803 561.642212,211.167419 552.422119,211.002823 
	C542.084534,210.818268 533.130005,218.826126 533.035095,228.635757 
	C532.904480,242.129105 533.085876,255.625366 532.972107,269.119019 
	C532.885986,279.333557 529.344910,281.497955 522.694275,282.029694 
	C516.707092,282.508453 510.472229,282.713287 504.635437,281.567627 
	C496.465851,279.964111 496.204773,272.249725 496.159790,266.118134 
	C495.854187,224.470398 495.984253,182.819244 496.059906,141.169373 
	C496.065552,138.057159 496.077271,134.648544 497.297668,131.919510 
	C498.484253,129.266129 500.811554,126.321060 503.371429,125.238579 
	C510.206818,122.348122 517.572693,122.520424 524.700623,124.399269 
	C530.166687,125.840073 532.978821,130.292496 532.989685,136.481522 
	C533.017822,152.469498 532.999084,168.457535 532.999084,185.360825 
	C539.883728,179.248413 546.845825,174.580780 556.148193,174.006287 
z"/>
<path fill="#2D4797" opacity="1.000000" stroke="none" 
	d="
M254.174042,221.595123 
	C253.673904,223.891479 253.057571,225.815613 253.045395,227.743576 
	C252.960190,241.237015 253.102005,254.732285 252.967392,268.224945 
	C252.858276,279.161072 247.689087,282.501434 238.376450,282.918182 
	C234.292191,283.100952 230.090805,282.810455 226.080658,282.027679 
	C219.243073,280.692963 216.058334,276.877625 216.045822,269.993866 
	C215.964676,225.347260 215.965546,180.700317 216.049606,136.053696 
	C216.061981,129.476685 218.986404,125.382607 225.335327,124.517746 
	C231.404312,123.691017 237.725403,123.937469 243.854462,124.539291 
	C250.513123,125.193123 252.837677,131.309738 252.935226,138.384933 
	C253.144104,153.534164 252.999252,168.688278 252.999252,184.884476 
	C255.292084,182.963806 256.909546,181.496262 258.640137,180.177185 
	C271.506531,170.370163 291.016693,173.553665 303.719818,183.239868 
	C315.931610,192.551422 323.044098,204.941147 323.898865,220.194885 
	C324.818420,236.603165 324.943848,253.072769 324.866760,269.513031 
	C324.827911,277.798035 321.260834,281.749268 312.955353,282.667297 
	C307.303223,283.292053 301.379456,282.617157 295.721130,281.666473 
	C291.062469,280.883698 288.043640,275.308868 288.017670,269.086609 
	C287.963470,256.092621 288.003418,243.098236 287.998840,230.104019 
	C287.995331,220.139938 283.745026,213.619781 275.806885,211.382172 
	C268.398926,209.293991 258.859070,213.667465 254.174042,221.595123 
z"/>
<path fill="#2D4797" opacity="1.000000" stroke="none" 
	d="
M475.747192,247.249741 
	C478.848389,250.012466 481.805786,252.409988 484.517365,255.059158 
	C488.599457,259.047272 489.650360,263.692963 486.608765,268.531891 
	C483.390686,273.651550 479.496185,278.420441 475.403198,282.890228 
	C472.573395,285.980560 466.163177,286.053497 461.973236,283.258026 
	C457.333893,280.162628 452.945770,276.657440 448.654510,273.083069 
	C444.587585,269.695557 440.668854,266.107666 436.904266,262.386017 
	C433.272369,258.795563 429.920776,254.921539 426.446075,251.172073 
	C425.963867,251.408142 425.481689,251.644226 424.999481,251.880295 
	C424.999481,256.440613 425.150238,261.007629 424.948822,265.559052 
	C424.804077,268.830322 424.620819,272.212494 423.676880,275.307953 
	C422.442993,279.354126 420.235535,282.882965 415.174103,283.090302 
	C409.902130,283.306244 404.486420,284.564331 399.397522,283.739014 
	C389.176117,282.081268 387.523499,279.551636 387.164948,267.953979 
	C386.568115,248.650635 387.000122,229.315475 386.999542,209.993698 
	C386.999298,201.665344 387.545868,193.289734 386.829315,185.023560 
	C386.252380,178.368195 388.925171,174.392761 393.857849,170.581650 
	C406.190521,161.053070 416.419495,149.791245 421.037567,134.388535 
	C421.316864,133.457092 421.832092,132.586975 422.316833,131.733337 
	C422.432617,131.529419 422.867065,131.506439 424.377502,130.949142 
	C424.377502,155.612808 424.377502,179.830307 424.377502,204.047821 
	C425.029083,204.301239 425.680664,204.554672 426.332245,204.808090 
	C429.235229,201.694809 431.927460,198.345886 435.087372,195.519913 
	C440.733734,190.470276 446.390442,185.355942 452.538147,180.961563 
	C461.218079,174.757111 467.852631,178.510086 472.970825,184.548035 
	C474.880493,186.800903 476.559814,189.267410 478.179626,191.744125 
	C483.086487,199.246918 481.908417,203.644653 475.583618,209.683731 
	C468.580261,216.370712 460.838898,222.284760 453.245972,228.681076 
	C460.770020,234.875549 468.131683,240.936371 475.747192,247.249741 
z"/>
<path fill="#2D4797" opacity="1.000000" stroke="none" 
	d="
M647.805542,278.323914 
	C635.407043,270.841400 625.894226,261.315399 620.946411,247.792664 
	C614.689514,230.692047 617.242126,204.695007 631.902710,190.446060 
	C640.767273,181.830338 650.410583,174.870377 662.728455,172.724091 
	C681.510132,169.451553 698.538025,173.054642 712.964783,186.393326 
	C721.830872,194.590759 728.040955,204.020203 730.209290,216.166138 
	C735.762085,247.271011 719.720703,274.724579 689.380432,283.001617 
	C674.975952,286.931274 661.339478,284.742462 647.805542,278.323914 
M666.238281,210.348709 
	C657.915771,214.269455 654.500183,220.971603 654.993347,229.973358 
	C655.475708,238.777466 662.257629,245.959763 672.050415,247.899887 
	C678.127075,249.103790 688.670715,243.632599 691.665894,237.721313 
	C695.404053,230.343445 694.850708,220.737595 689.751709,215.386551 
	C683.453003,208.776459 675.603333,207.466888 666.238281,210.348709 
z"/>
<path fill="#2D4797" opacity="1.000000" stroke="none" 
	d="
M179.705994,281.956970 
	C158.311661,287.355530 138.118057,285.928955 119.036316,274.968658 
	C113.087868,271.551941 110.926392,266.262939 113.688484,260.012665 
	C115.604797,255.676270 118.092575,251.471619 120.992279,247.724457 
	C123.906319,243.958786 128.321060,244.184738 132.370026,245.812302 
	C138.478638,248.267807 144.254623,251.786118 150.541534,253.485489 
	C155.243835,254.756546 160.540405,254.074417 165.546249,253.794785 
	C166.716064,253.729462 168.581329,251.823929 168.655304,250.670670 
	C168.721954,249.631500 166.948471,247.804428 165.681992,247.466583 
	C160.447968,246.070435 154.859894,245.737839 149.846130,243.840576 
	C142.071045,240.898361 134.162537,237.761200 127.246811,233.266296 
	C121.560722,229.570602 119.153023,222.764526 117.496124,216.065079 
	C114.664696,204.616470 115.493355,193.779846 122.978264,184.227951 
	C128.099762,177.692123 135.547134,174.812469 143.362442,173.365616 
	C160.163727,170.255203 176.587677,171.575150 192.186493,179.081909 
	C198.855591,182.291351 200.448990,186.442841 197.810806,193.245743 
	C197.037109,195.240814 196.024094,197.159576 194.964050,199.024231 
	C190.101028,207.578506 186.168518,208.791214 176.989426,205.021973 
	C169.609085,201.991364 162.083664,199.280334 153.979462,202.067413 
	C152.511627,202.572220 150.171082,204.210724 150.302795,204.963974 
	C150.619080,206.772720 151.805878,209.297684 153.283493,209.866882 
	C157.215424,211.381516 161.449600,212.225784 165.629822,212.958878 
	C175.593033,214.706085 185.625259,216.864349 193.529770,223.318680 
	C202.714096,230.818054 204.239655,241.412842 203.306122,252.875244 
	C202.599518,261.551117 200.444397,269.328857 193.529694,274.733124 
	C189.591049,277.811401 184.621231,279.570282 179.705994,281.956970 
z"/>
<path fill="#355DAB" opacity="1.000000" stroke="none" 
	d="
M326.167999,94.994591 
	C339.809723,93.359734 353.450287,91.715073 367.095032,90.105705 
	C368.407837,89.950859 369.746552,90.015312 371.652588,90.037552 
	C372.231964,90.097160 372.480133,90.340469 372.736053,90.584000 
	C388.527008,99.666641 404.055939,108.516563 419.611847,117.318794 
	C420.578308,117.865662 421.756866,118.037796 422.836731,118.384277 
	C418.919800,126.051834 415.923462,134.392563 410.905518,141.255035 
	C398.141815,158.710602 380.631775,167.174667 358.674744,167.156067 
	C342.694031,167.142532 328.173187,163.143295 314.094391,154.679749 
	C310.422089,151.630966 306.986420,149.258408 304.071198,146.362030 
	C300.220245,142.535965 296.777161,138.299377 293.158752,134.239258 
	C287.607697,125.611526 284.885071,115.968147 283.371277,105.595840 
	C288.740448,106.392578 289.881287,102.983292 290.466095,99.311409 
	C293.990845,101.410210 297.102692,104.048447 300.689453,105.175781 
	C304.204712,106.280647 306.353210,103.049583 306.841095,96.357834 
	C308.954803,98.708412 310.563171,100.726006 312.409943,102.494682 
	C314.904022,104.883331 317.357941,107.433174 320.242584,109.261444 
	C323.161316,111.111343 326.247284,110.619034 328.739777,107.803368 
	C331.153534,105.076653 330.617401,102.345909 329.020142,99.562202 
	C328.127441,98.006371 327.122406,96.515007 326.167999,94.994591 
z"/>
<path fill="#E2008D" opacity="1.000000" stroke="none" 
	d="
M268.507629,351.794250 
	C270.827423,349.592407 272.795166,347.573822 274.762909,345.555267 
	C274.402679,345.226013 274.042480,344.896759 273.682281,344.567505 
	C265.442963,349.212250 253.525101,348.089722 251.450333,335.154785 
	C249.842255,335.154785 248.209244,335.154785 246.080414,335.154785 
	C246.080414,350.642548 246.080414,366.058228 246.080414,381.732910 
	C242.657944,381.732910 239.714996,381.732910 236.000183,381.732910 
	C236.000183,378.943085 236.067566,376.021454 235.988052,373.103851 
	C235.704041,362.682556 235.689392,352.238831 234.913651,341.852783 
	C234.553314,337.028351 230.408844,334.360626 226.390671,335.027802 
	C222.719345,335.637329 219.825958,339.355438 220.012039,343.224579 
	C220.188965,346.903687 223.743912,349.852692 228.172607,350.006287 
	C228.969223,350.033905 229.764297,350.105560 230.318466,350.141296 
	C230.641373,350.546539 230.849716,350.691437 230.833847,350.805054 
	C230.418854,353.775726 229.980621,356.743134 229.546387,359.711121 
	C225.581924,359.087952 221.355530,359.102051 217.744843,357.618073 
	C215.329895,356.625519 213.836975,356.142761 211.727478,357.705292 
	C210.752548,358.427460 209.403641,358.714813 208.179520,359.019226 
	C198.860916,361.336670 197.552887,360.227509 198.288422,349.997101 
	C199.982574,349.997101 201.738266,349.955750 203.491379,350.005402 
	C207.663742,350.123627 209.452972,347.322784 209.815201,343.941284 
	C210.167664,340.650848 209.216934,337.409546 205.386826,336.174500 
	C204.151337,335.776093 202.915527,335.136963 201.660553,335.086304 
	C198.014709,334.938995 194.359070,335.034088 190.179016,335.034088 
	C190.179016,350.613922 190.179016,366.009644 190.179016,381.699402 
	C186.603867,381.699402 183.551254,381.699402 180.134491,381.699402 
	C180.134491,366.287537 180.134491,351.015045 180.134491,335.257568 
	C177.416458,335.104248 175.017456,334.968933 172.313614,334.816406 
	C172.313614,332.319916 172.313614,329.927856 172.313614,327.190247 
	C174.657074,327.081787 176.939392,326.976135 180.000412,326.834473 
	C180.000412,325.286896 180.028091,323.707916 179.995834,322.130188 
	C179.813034,313.187134 186.332336,308.204926 194.070480,306.878845 
	C204.111038,305.158203 213.402130,307.444031 222.852020,310.302002 
	C222.852020,313.160492 222.852020,315.795746 222.852020,318.197388 
	C215.797653,317.123291 208.855515,315.562408 201.843582,315.128113 
	C193.371429,314.603394 190.529175,317.687531 190.168533,326.545441 
	C198.096085,328.528870 207.194366,324.061829 214.432266,330.783447 
	C220.820297,324.586395 227.983521,324.608246 235.880707,328.504547 
	C235.880707,325.799011 235.880707,323.226318 235.880707,320.329041 
	C239.269760,320.329041 242.338745,320.329041 245.815765,320.329041 
	C245.930573,322.389496 246.045914,324.459381 246.185471,326.964050 
	C251.848862,326.964050 257.283875,326.964050 261.133636,326.964050 
	C262.857178,331.226807 263.981415,334.613251 265.703552,337.661957 
	C265.986084,338.162079 269.896271,337.718231 270.408661,336.775330 
	C271.922882,333.988861 272.574554,330.733673 273.736053,327.126434 
	C275.605377,327.126434 278.905243,327.126434 282.187225,327.126434 
	C287.220001,341.270020 286.678436,353.849579 270.801483,360.635986 
	C277.190186,364.106964 283.220276,367.383087 289.826691,370.972351 
	C289.826691,353.806976 289.826691,337.269714 289.826691,320.367859 
	C293.599060,320.367859 296.984863,320.367859 300.747894,320.367859 
	C300.899902,322.361877 301.057648,324.430969 301.233826,326.741913 
	C327.795135,326.741913 354.194702,326.741913 380.845459,326.741913 
	C380.942108,324.558258 381.028412,322.609131 381.129181,320.332520 
	C384.287384,320.332520 387.351105,320.332520 390.828003,320.332520 
	C390.935211,322.400757 391.042603,324.472565 391.166168,326.856140 
	C393.709625,326.856140 395.989136,326.856140 398.634399,326.856140 
	C398.634399,329.569244 398.634399,331.964325 398.634399,334.754181 
	C396.333710,334.897552 393.925842,335.047607 391.180237,335.218689 
	C391.180237,350.653931 391.180237,365.930206 391.180237,381.601562 
	C387.791138,381.601562 384.740356,381.601562 381.000183,381.601562 
	C381.000183,375.498169 381.000183,369.230591 381.000183,362.962982 
	C381.000183,356.630463 381.001007,350.297974 380.999969,343.965454 
	C380.998627,335.681549 380.158600,334.846252 371.963013,335.007050 
	C371.156525,335.022858 370.351257,335.101227 369.040894,335.181458 
	C369.040894,350.739777 369.040894,366.143524 369.040894,381.653992 
	C363.248230,382.418579 358.391998,382.393829 353.870575,378.484924 
	C348.702972,374.017487 342.972076,370.194244 337.425018,366.175232 
	C332.495575,362.603668 332.210999,353.384766 337.395813,350.270294 
	C343.365448,346.684357 349.777771,343.842743 355.887451,340.477448 
	C357.426941,339.629486 358.545319,338.016998 359.857239,336.755859 
	C359.521301,336.191315 359.185394,335.626801 358.849487,335.062286 
	C349.590637,335.062286 340.300659,334.598633 331.083435,335.218201 
	C324.461151,335.663330 322.003845,341.480133 321.268005,346.984711 
	C320.434692,353.219025 320.515045,359.710724 321.230469,365.972534 
	C321.767853,370.676514 324.561920,374.384491 330.719696,372.778381 
	C330.719696,376.330322 330.719696,379.413422 330.719696,382.463379 
	C322.261993,385.038635 312.287140,377.621094 310.847382,367.256470 
	C309.316193,356.233978 310.306335,345.824707 315.009857,335.345520 
	C310.405884,335.345520 306.036896,335.345520 301.132446,335.345520 
	C301.132446,350.664368 301.132446,366.059143 301.132446,381.829163 
	C295.460480,381.894684 290.633820,382.481323 285.593475,379.434479 
	C276.121216,373.708496 265.896240,369.226990 256.429657,363.492737 
	C254.357681,362.237671 254.152313,357.901001 253.099045,355.015686 
	C258.971863,353.830658 263.563690,352.904114 268.507629,351.794250 
M345.082367,359.601898 
	C349.473022,362.733521 353.863678,365.865143 358.739197,369.342590 
	C358.739197,362.660797 358.739197,356.650513 358.739197,348.884491 
	C353.480927,352.673615 349.052307,355.864868 345.082367,359.601898 
z"/>
<path fill="#E2008D" opacity="1.000000" stroke="none" 
	d="
M437.000122,357.000061 
	C437.000122,349.528748 437.000122,342.557343 437.000122,335.231812 
	C434.269806,335.079346 431.865662,334.945068 429.240784,334.798492 
	C429.240784,332.295563 429.240784,330.017792 429.240784,327.224091 
	C431.570984,327.224091 433.970001,327.224091 436.467468,327.224091 
	C436.943420,323.379181 436.921875,319.892914 437.861145,316.688232 
	C440.184509,308.761230 448.086884,305.737335 459.016663,306.187012 
	C466.037506,306.475891 472.984802,308.551880 479.853394,309.806427 
	C479.853394,313.314270 479.853394,315.953369 479.853394,318.234406 
	C472.410461,317.146515 465.098328,315.596222 457.717987,315.133301 
	C450.215210,314.662750 446.867523,318.757050 447.220184,326.744934 
	C515.965576,326.744934 584.722473,326.744934 653.799438,326.744934 
	C653.919800,324.666504 654.032349,322.721985 654.167480,320.387939 
	C657.188843,320.387939 660.243958,320.387939 663.699646,320.387939 
	C663.862305,322.294312 664.039001,324.365173 664.241577,326.739410 
	C666.719238,326.904419 669.132751,327.065155 671.759888,327.240112 
	C671.759888,329.710724 671.759888,331.988007 671.759888,334.769043 
	C669.440857,334.896912 667.031250,335.029785 664.106079,335.191071 
	C664.106079,350.666931 664.106079,366.071869 664.106079,381.733521 
	C660.657288,381.733521 657.713989,381.733521 654.000000,381.733521 
	C654.000000,379.442871 654.000000,377.022186 654.000000,374.601532 
	C654.000000,364.935242 654.000000,355.268921 654.000000,345.602631 
	C653.999939,335.114471 653.223572,334.409454 642.100037,335.304535 
	C642.100037,350.659332 642.100037,366.067200 642.100037,381.601868 
	C636.313049,382.522369 631.499573,382.271515 626.951111,378.580902 
	C621.643433,374.274292 615.802673,370.628571 610.238708,366.632721 
	C605.409790,363.164764 605.308838,353.446960 610.400574,350.370026 
	C616.341309,346.779907 622.558411,343.585602 628.881775,340.718475 
	C631.655823,339.460693 632.825195,338.289307 631.423523,335.022369 
	C622.620605,335.022369 613.632690,334.692261 604.683105,335.135742 
	C598.483459,335.442993 595.125610,339.221863 594.188232,347.065002 
	C593.478699,353.002106 593.676331,359.111450 594.092529,365.100861 
	C594.488037,370.792206 596.875732,372.702362 602.762878,373.251282 
	C602.762878,376.327606 602.762878,379.427124 602.762878,382.498810 
	C594.185547,383.985809 587.239624,378.907379 585.110474,371.873779 
	C581.385986,359.570282 582.138367,347.435669 587.919739,335.368988 
	C558.624084,335.368988 529.485657,335.368988 499.331726,335.368988 
	C505.256653,342.302246 513.067200,344.037170 520.651794,346.739960 
	C518.104614,358.320984 514.572144,369.723297 519.655701,381.995605 
	C516.369263,381.995605 513.841309,382.349762 511.490997,381.856689 
	C510.177063,381.581055 508.193542,379.930267 508.158905,378.846436 
	C507.884369,370.260284 508.006104,361.661407 508.006104,353.293060 
	C501.594116,348.841187 494.668243,344.032532 487.421387,339.001007 
	C486.840088,339.792084 484.885651,341.351685 484.502625,343.231476 
	C483.932037,346.031891 483.357330,350.066223 484.845215,351.709717 
	C486.382996,353.408325 490.382660,353.212463 493.306305,353.216980 
	C495.671387,353.220612 498.037872,352.291290 500.561829,351.741394 
	C507.339142,362.242676 499.887238,381.356354 483.324860,382.311249 
	C463.845367,383.434296 454.315002,366.349274 456.392365,349.287445 
	C459.744995,349.287445 463.136383,349.287445 466.491364,349.287445 
	C467.017029,353.845215 467.007812,358.352905 468.129333,362.559143 
	C470.666809,372.075958 480.748505,375.982849 488.073456,370.808746 
	C490.497192,369.096710 491.779480,365.768738 494.500580,361.863678 
	C485.277496,363.663483 477.998383,363.339783 473.962555,355.583008 
	C470.292206,348.528687 472.817505,341.802124 476.833923,335.188232 
	C466.717133,335.188232 457.147278,335.188232 447.045868,335.188232 
	C447.045868,350.760986 447.045868,366.157990 447.045868,381.772217 
	C443.581421,381.772217 440.640381,381.772217 437.000122,381.772217 
	C437.000122,373.694519 437.000122,365.597260 437.000122,357.000061 
M626.058411,352.441986 
	C623.078491,354.372467 620.098633,356.302979 616.695312,358.507751 
	C621.850098,362.357849 626.686340,365.970032 631.911621,369.872772 
	C631.911621,362.970856 631.911621,356.829224 631.911621,350.358582 
	C630.061401,350.963470 628.388245,351.510468 626.058411,352.441986 
z"/>
<path fill="#2D4797" opacity="1.000000" stroke="none" 
	d="
M340.231995,185.689728 
	C342.423035,177.081482 345.070282,174.636185 354.225555,174.139160 
	C358.944092,173.882950 363.809418,174.443619 368.462585,175.368622 
	C373.745300,176.418732 376.939728,180.660172 376.955750,186.139343 
	C377.037567,214.126740 377.089752,242.115036 376.931091,270.101776 
	C376.886505,277.966248 372.006104,282.370148 363.485107,282.947235 
	C360.168671,283.171844 356.808685,283.186768 353.495270,282.939545 
	C344.381226,282.259521 340.080536,277.841095 340.049500,268.568268 
	C339.957550,241.082062 340.072723,213.595139 340.231995,185.689728 
z"/>
<path fill="#E2008D" opacity="1.000000" stroke="none" 
	d="
M326.016479,94.685379 
	C327.122406,96.515007 328.127441,98.006371 329.020142,99.562202 
	C330.617401,102.345909 331.153534,105.076653 328.739777,107.803368 
	C326.247284,110.619034 323.161316,111.111343 320.242584,109.261444 
	C317.357941,107.433174 314.904022,104.883331 312.409943,102.494682 
	C310.563171,100.726006 308.954803,98.708412 306.841095,96.357834 
	C306.353210,103.049583 304.204712,106.280647 300.689453,105.175781 
	C297.102692,104.048447 293.990845,101.410210 290.466095,99.311409 
	C289.881287,102.983292 288.740448,106.392578 283.381958,105.200256 
	C281.052063,103.594818 278.738068,102.232841 277.119324,100.291199 
	C268.529999,89.988472 260.132629,79.525894 251.631531,69.149223 
	C248.103531,64.842865 244.175049,60.821342 241.064392,56.238762 
	C239.909531,54.537437 239.562775,50.422733 240.639816,49.499458 
	C242.341583,48.040657 245.554596,48.344788 248.420502,47.852570 
	C247.628647,46.831203 246.329529,45.331333 245.229950,43.697186 
	C243.457825,41.063477 241.960220,38.178623 244.421112,35.277130 
	C246.570282,32.743118 249.348679,32.208511 252.348679,34.090286 
	C252.970901,34.480579 253.701630,34.697922 255.133820,35.322918 
	C254.754684,34.026669 254.689392,33.445045 254.429123,32.970325 
	C252.392288,29.255339 252.051804,25.700895 255.952713,23.041351 
	C259.213257,20.818388 264.266479,21.812777 266.960785,24.978258 
	C283.017120,43.842575 299.054230,62.723236 315.090820,81.604340 
	C318.696442,85.849510 322.274292,90.118263 326.016479,94.685379 
z"/>
<path fill="#FAA701" opacity="1.000000" stroke="none" 
	d="
M372.480133,90.340469 
	C372.480133,90.340469 372.231964,90.097160 372.086975,90.001389 
	C371.563110,79.764168 373.604492,70.073318 378.440002,61.211884 
	C384.675690,49.784569 394.714691,44.008171 407.647461,42.982742 
	C427.534973,41.405876 439.507111,51.666443 446.584106,69.383141 
	C445.609039,70.099983 444.920166,70.381271 443.809082,70.716057 
	C420.819153,77.098137 398.251404,83.426720 375.281433,89.818787 
	C374.079498,90.035004 373.279816,90.187737 372.480133,90.340469 
z"/>
<path fill="#E2008D" opacity="1.000000" stroke="none" 
	d="
M543.326172,366.816833 
	C548.379639,370.768555 553.812927,371.284515 558.793213,368.442566 
	C563.905273,365.525452 565.529968,360.356171 565.084961,354.392792 
	C564.808105,350.683472 563.645691,348.111786 559.886536,347.087799 
	C554.244507,350.097992 555.884216,354.936920 556.814880,359.591980 
	C553.029297,358.926544 547.187866,363.530212 546.124695,356.234619 
	C544.635376,346.015289 548.838135,339.897644 556.348511,338.950775 
	C575.029602,336.595551 579.176941,354.104828 574.070190,365.682129 
	C569.271545,376.561218 561.946045,380.180267 547.376404,378.994904 
	C538.729492,378.291412 530.123596,370.528717 528.156067,360.763245 
	C527.033142,355.189636 527.072205,349.381866 526.556946,343.313904 
	C530.719116,343.313904 534.121338,343.313904 537.536804,343.313904 
	C536.546997,351.782227 536.714050,359.905487 543.326172,366.816833 
z"/>
<path fill="#E0028D" opacity="1.000000" stroke="none" 
	d="
M372.736053,90.584000 
	C373.279816,90.187737 374.079498,90.035004 375.729950,89.861313 
	C378.068390,89.708038 379.556824,89.584023 381.043579,89.442131 
	C397.252075,87.895134 413.460297,86.345337 429.717712,85.212448 
	C429.651886,86.777077 429.651428,87.950829 429.404205,89.070076 
	C427.235657,98.886902 425.023102,108.694016 422.823608,118.504005 
	C422.823608,118.504005 422.863647,118.448853 422.850189,118.416565 
	C421.756866,118.037796 420.578308,117.865662 419.611847,117.318794 
	C404.055939,108.516563 388.527008,99.666641 372.736053,90.584000 
z"/>
<path fill="#E2008D" opacity="1.000000" stroke="none" 
	d="
M293.096252,134.579285 
	C296.777161,138.299377 300.220245,142.535965 304.071198,146.362030 
	C306.986420,149.258408 310.422089,151.630966 313.761322,154.534119 
	C299.101959,160.649780 284.307404,166.467972 269.512817,172.286163 
	C269.183258,171.886124 268.853699,171.486084 268.524109,171.086044 
	C276.694000,159.030487 284.863861,146.974915 293.096252,134.579285 
z"/>
<path fill="#345EAA" opacity="1.000000" stroke="none" 
	d="
M443.538696,52.182472 
	C451.579712,48.562325 459.294769,45.086433 467.009827,41.610538 
	C467.216492,41.909145 467.423157,42.207752 467.629822,42.506355 
	C461.693298,50.981152 455.756775,59.455944 449.494080,68.396347 
	C446.811676,63.669109 444.375824,59.595844 442.231873,55.374313 
	C441.888794,54.698734 442.852905,53.359283 443.538696,52.182472 
z"/>
<path fill="#3F5AA7" opacity="1.000000" stroke="none" 
	d="
M423.111389,118.244987 
	C425.023102,108.694016 427.235657,98.886902 429.404205,89.070076 
	C429.651428,87.950829 429.651886,86.777077 429.899963,84.935059 
	C434.765839,79.715187 439.498566,75.188866 444.231293,70.662552 
	C444.920166,70.381271 445.609039,70.099983 446.567505,69.730148 
	C444.927368,73.631737 443.037170,77.631363 441.104187,81.610191 
	C435.211365,93.739754 429.302063,105.861298 423.111389,118.244987 
z"/>
<path fill="#E3008D" opacity="1.000000" stroke="none" 
	d="
M406.466309,371.005615 
	C410.058350,371.002411 413.210571,371.002411 416.934448,371.002411 
	C413.461884,377.738007 410.721619,384.589844 406.518524,390.379791 
	C405.029541,392.430878 399.976135,391.894501 395.434387,392.749359 
	C398.492706,385.319397 400.997986,379.084686 403.668732,372.921661 
	C404.025604,372.098145 405.219940,371.637512 406.466309,371.005615 
z"/>
<path fill="#000000" opacity="1.000000" stroke="none" 
	d="
M666.615845,210.211914 
	C675.603333,207.466888 683.453003,208.776459 689.751709,215.386551 
	C694.850708,220.737595 695.404053,230.343445 691.665894,237.721313 
	C688.670715,243.632599 678.127075,249.103790 672.050415,247.899887 
	C662.257629,245.959763 655.475708,238.777466 654.993347,229.973358 
	C654.500183,220.971603 657.915771,214.269455 666.615845,210.211914 
z"/>
<path fill="#000000" opacity="1.000000" stroke="none" 
	d="
M344.853027,359.329010 
	C349.052307,355.864868 353.480927,352.673615 358.739197,348.884491 
	C358.739197,356.650513 358.739197,362.660797 358.739197,369.342590 
	C353.863678,365.865143 349.473022,362.733521 344.853027,359.329010 
z"/>
<path fill="#000000" opacity="1.000000" stroke="none" 
	d="
M626.386719,352.249725 
	C628.388245,351.510468 630.061401,350.963470 631.911621,350.358582 
	C631.911621,356.829224 631.911621,362.970856 631.911621,369.872772 
	C626.686340,365.970032 621.850098,362.357849 616.695312,358.507751 
	C620.098633,356.302979 623.078491,354.372467 626.386719,352.249725 
z"/>
<path fill="#FD1E5A" opacity="1.000000" stroke="none" 
	d="
M443.809082,70.716049 
	C439.498566,75.188866 434.765839,79.715187 429.850861,84.518906 
	C413.460297,86.345337 397.252075,87.895134 381.043579,89.442131 
	C379.556824,89.584023 378.068390,89.708038 376.132202,89.797836 
	C398.251404,83.426720 420.819153,77.098137 443.809082,70.716049 
z"/>
</svg>