<svg xmlns="http://www.w3.org/2000/svg" viewBox="0 0 462.86 138.81"><defs><style>.cls-1{fill:#fff;}.cls-2{fill:#f15c24;}</style></defs><g id="Layer_2" data-name="Layer 2"><g id="Layer_1-2" data-name="Layer 1"><g id="Layer_2-2" data-name="Layer 2"><g id="Layer_1-2-2" data-name="Layer 1-2"><path class="cls-1" d="M13.91,25.49V56.62c3.31-5.82,12.55-9,18.48-9C48.81,47.61,61,57.64,61,77c0,18.47-12.43,29.42-29,29.42-6.84,0-13.79-2.28-18.13-9L13,105.2H0V25.49ZM14.83,77c0,10.15,7.52,16.54,16.3,16.54s16-6.73,16-16.54c0-10.15-7.08-16.42-16-16.42A16,16,0,0,0,14.83,77Z"/><path class="cls-1" d="M85.18,25.38V56.62c5-6.5,11.17-8.44,17.56-8.44,16,0,23,10.84,23,27.37V105.2H111.85V75.66c0-10.25-5.35-14.59-12.76-14.59-8.22,0-13.91,6.95-13.91,15.38v28.74H71.27V25.38Z"/><path class="cls-1" d="M182.1,49h13.34V105.2H182.33L181.64,97c-3.2,6.61-12,9.8-18.24,9.93-16.65.11-29-10.15-29-29.88,0-19.38,12.89-29.53,29.31-29.41,7.53,0,14.71,3.52,17.9,9.12ZM148.35,77c0,10.72,7.41,17.11,16.65,17.11,21.89,0,21.89-34.1,0-34.1C155.76,60,148.35,66.31,148.35,77Z"/><path class="cls-1" d="M248.57,105.2V75.78c0-8.55-4.67-15.07-13.57-15.07-8.55,0-14.36,7.19-14.36,15.74v28.74H206.85V48.87h12.44l.89,7.64c5.7-5.59,11.41-8.44,18.47-8.44,13.23,0,23.84,9.94,23.84,27.6V105.2Z"/><path class="cls-1" d="M318,49v6.61L292.13,91.51h26.13V105.2H270.92V99.38l26.92-37.74H273V49Z"/><path class="cls-1" d="M340.81,49V78.4c0,8.55,4.68,15.06,13.57,15.06,8.56,0,14.37-7.18,14.37-15.73V49h13.78v56.33H370.1l-.88-7.64c-5.82,5.7-11.18,8.44-19.05,8.44-13.46,0-23.26-10.15-23.26-27.6V49Z"/><path class="cls-2" d="M462.42,61.52A69.38,69.38,0,0,0,333,35.45h5.81a65.17,65.17,0,0,1,7.37-10.24,54.83,54.83,0,0,1,18.4-13.73A51.61,51.61,0,0,1,383.4,7.1,46.46,46.46,0,0,1,412,16,49.66,49.66,0,0,1,426.7,32.12c3.24,5.86,5.09,12.65,4.1,19.35-1.1,7.41-5.64,13.59-11.52,18a27.13,27.13,0,0,1,10.85,26.63,40.44,40.44,0,0,1-9,20c-5.81,7.09-13.85,11.64-22.68,14-8.39,2.19-13.37,2.74-25.54-.3l-.09,0c-7.83-2.22-11.52-3.11-22-11.86l-7.73-.73a69.41,69.41,0,0,0,119.27-55.7Z"/></g></g><path class="cls-1" d="M1.83,119.43H0V117.5H1.83v-1c0-3.15,1.55-4.56,5.15-4.56v2c-2.11,0-2.81.78-2.81,2.61v1h3v1.93h-3v12.19H1.83Z"/><path class="cls-1" d="M16,131.85c-4,0-7-2.83-7-7.32a6.91,6.91,0,0,1,7.14-7.26,6.89,6.89,0,0,1,7.14,7.26A7,7,0,0,1,16,131.85Zm0-2.06c2.45,0,4.84-1.67,4.84-5.26s-2.34-5.23-4.76-5.23-4.72,1.68-4.72,5.23S13.58,129.79,16,129.79Z"/><path class="cls-1" d="M28.71,131.62H26.36V117.5h2.35v2.29a4.76,4.76,0,0,1,4.56-2.55v2.43h-.62c-2.24,0-3.94,1-3.94,4.27Z"/><path class="cls-1" d="M56.36,123.63c0-2.88-1.55-4.35-3.87-4.35s-4,1.52-4,4.56v7.78H46.18v-8c0-2.88-1.55-4.35-3.87-4.35s-4,1.52-4,4.56v7.78H36V117.5h2.34v2a5.1,5.1,0,0,1,4.46-2.3A5.31,5.31,0,0,1,48,120.39a5.22,5.22,0,0,1,5-3.15c3.22,0,5.72,2,5.72,6.06v8.32H56.36Z"/><path class="cls-1" d="M68.63,131.85c-4,0-7-2.83-7-7.32s2.86-7.26,7-7.26A6.47,6.47,0,0,1,75.4,124a13.24,13.24,0,0,1-.07,1.42H64a4.44,4.44,0,0,0,4.59,4.43,3.89,3.89,0,0,0,4-2.6h2.52A6.35,6.35,0,0,1,68.63,131.85Zm-4.56-8.32H73a4.14,4.14,0,0,0-4.46-4.28A4.36,4.36,0,0,0,64.07,123.53Z"/><path class="cls-1" d="M80.84,131.62H78.5V117.5h2.34v2.29a4.76,4.76,0,0,1,4.56-2.55v2.43h-.61c-2.25,0-4,1-4,4.27Z"/><path class="cls-1" d="M88.11,112.55h2.35v19.07H88.11Z"/><path class="cls-1" d="M104.19,117.5h2.42l-8.5,20.77H95.69l2.78-6.8-5.69-14h2.6l4.43,11.44Z"/><path class="cls-1" d="M125.5,115.57h-7.31v6h6.54v1.93h-6.54v6.19h7.31v1.93h-9.66v-18h9.66Z"/><path class="cls-1" d="M133.08,126.36l-3.22,5.26h-2.45l4.56-7-4.56-7.11h2.66l3.35,5.23,3.19-5.23h2.45l-4.54,7,4.56,7.14h-2.65Z"/><path class="cls-1" d="M149,117.27c3.79,0,6.7,2.83,6.7,7.24s-2.91,7.34-6.7,7.34a6.12,6.12,0,0,1-5.28-2.83v9.3h-2.34V117.5h2.34v2.6A6,6,0,0,1,149,117.27Zm-.49,2c-2.55,0-4.79,2-4.79,5.23s2.24,5.26,4.79,5.26,4.79-2,4.79-5.28S151.14,119.3,148.54,119.3Z"/><path class="cls-1" d="M158.83,112.55h2.34v19.07h-2.34Z"/><path class="cls-1" d="M171.32,131.85c-4,0-7-2.83-7-7.32a7.14,7.14,0,1,1,14.27,0A7,7,0,0,1,171.32,131.85Zm0-2.06c2.45,0,4.85-1.67,4.85-5.26s-2.35-5.23-4.77-5.23-4.71,1.68-4.71,5.23S168.88,129.79,171.32,129.79Z"/><path class="cls-1" d="M184,131.62h-2.34V117.5H184v2.29a4.76,4.76,0,0,1,4.57-2.55v2.43H188c-2.24,0-3.95,1-3.95,4.27Z"/><path class="cls-1" d="M190.89,113.61a1.57,1.57,0,1,1,1.59,1.6A1.57,1.57,0,0,1,190.89,113.61Zm.38,3.89h2.35v14.12h-2.35Z"/><path class="cls-1" d="M207.94,123.63c0-2.88-1.57-4.35-3.94-4.35s-4,1.49-4,4.53v7.81h-2.35V117.5H200v2a5.21,5.21,0,0,1,4.53-2.27c3.27,0,5.77,2,5.77,6.06v8.32h-2.32Z"/><path class="cls-1" d="M219.93,117.27a5.8,5.8,0,0,1,5.25,2.81V117.5h2.38v14.43a6.34,6.34,0,0,1-6.76,6.65c-3.71,0-6.36-1.88-6.82-4.9h2.32c.51,1.7,2.19,2.86,4.5,2.86,2.5,0,4.38-1.6,4.38-4.61v-3a5.88,5.88,0,0,1-5.25,2.88c-3.79,0-6.7-3-6.7-7.34S216.14,117.27,219.93,117.27Zm.46,2c-2.57,0-4.76,1.89-4.76,5.21s2.19,5.28,4.76,5.28,4.79-1.93,4.79-5.26S223,119.3,220.39,119.3Z"/><path class="cls-1" d="M238.41,113.66h2.34v18h-2.34Z"/><path class="cls-1" d="M255.08,123.63c0-2.88-1.57-4.35-3.94-4.35s-4,1.49-4,4.53v7.81h-2.34V117.5h2.34v2a5.22,5.22,0,0,1,4.54-2.27c3.27,0,5.77,2,5.77,6.06v8.32h-2.32Z"/><path class="cls-1" d="M261.68,119.43h-1.83V117.5h1.83v-1c0-3.15,1.55-4.56,5.15-4.56v2c-2.11,0-2.81.78-2.81,2.61v1h3v1.93h-3v12.19h-2.34Z"/><path class="cls-1" d="M269.33,113.61a1.58,1.58,0,1,1,1.6,1.6A1.58,1.58,0,0,1,269.33,113.61Zm.39,3.89h2.34v14.12h-2.34Z"/><path class="cls-1" d="M286.39,123.63c0-2.88-1.57-4.35-3.94-4.35s-4.05,1.49-4.05,4.53v7.81h-2.34V117.5h2.34v2a5.22,5.22,0,0,1,4.54-2.27c3.27,0,5.77,2,5.77,6.06v8.32h-2.32Z"/><path class="cls-1" d="M292.17,113.61a1.57,1.57,0,1,1,1.59,1.6A1.57,1.57,0,0,1,292.17,113.61Zm.38,3.89h2.35v14.12h-2.35Z"/><path class="cls-1" d="M299.41,119.43h-1.83V117.5h1.83V114h2.34v3.55h3.69v1.93h-3.69v8.33c0,1.39.52,1.88,2,1.88h1.73v2h-2.12c-2.49,0-3.91-1-3.91-3.86Z"/><path class="cls-1" d="M307.89,113.61a1.57,1.57,0,1,1,1.59,1.6A1.57,1.57,0,0,1,307.89,113.61Zm.38,3.89h2.35v14.12h-2.35Z"/><path class="cls-1" d="M320.72,131.85c-4,0-7-2.83-7-7.32s2.86-7.26,7-7.26A6.48,6.48,0,0,1,327.5,124a13.22,13.22,0,0,1-.08,1.42H316.13a4.44,4.44,0,0,0,4.59,4.43,3.89,3.89,0,0,0,4-2.6h2.52A6.35,6.35,0,0,1,320.72,131.85Zm-4.56-8.32h8.91a4.14,4.14,0,0,0-4.45-4.28A4.37,4.37,0,0,0,316.16,123.53Z"/><path class="cls-1" d="M335.59,131.85c-3.3,0-5.62-1.8-5.77-4.38h2.42c.13,1.37,1.34,2.4,3.32,2.4s2.89-.93,2.89-2.09c0-3.14-8.35-1.31-8.35-6.57,0-2.16,2-3.94,5.18-3.94s5.18,1.67,5.33,4.43h-2.34c-.1-1.42-1.19-2.45-3.07-2.45-1.72,0-2.75.83-2.75,2,0,3.35,8.19,1.52,8.29,6.57C340.74,130.1,338.71,131.85,335.59,131.85Z"/></g></g></svg>